<svg width="47" height="17" viewBox="0 0 47 17" fill="none" xmlns="http://www.w3.org/2000/svg">
<path d="M5.57662 16.6673C4.20422 16.6125 3.08139 16.2352 2.20343 15.5344C2.03588 15.4006 1.63661 14.9992 1.50266 14.8299C1.14663 14.3801 0.904585 13.9424 0.74314 13.4567C0.24635 11.9616 0.50203 9.99977 1.47446 7.84667C2.30707 6.00335 3.59181 4.17514 5.83324 1.64309C6.16342 1.27051 7.14666 0.180847 7.153 0.180847C7.15535 0.180847 7.10177 0.274113 7.03432 0.387682C6.45152 1.36849 5.95286 2.52378 5.6812 3.52394C5.2448 5.12879 5.29744 6.50603 5.83535 7.57396C6.20642 8.30968 6.84256 8.94695 7.5579 9.29923C8.81022 9.91571 10.6437 9.96671 12.8828 9.44845C13.0369 9.41256 20.6758 7.37516 29.8582 4.92078C39.0406 2.46617 46.5547 0.459461 46.5559 0.461114C46.5585 0.463239 25.2226 9.63616 14.1468 14.395C12.3928 15.1484 11.9237 15.3387 11.0991 15.6296C8.99117 16.3734 7.10294 16.7282 5.57662 16.6673Z" fill="black"/>
</svg>
